<svg width="215" height="387" viewBox="0 0 215 387" fill="none" xmlns="http://www.w3.org/2000/svg">
<path d="M193.507 75.4185L188.196 72.2619L187.412 66.1413L184.251 71.4433L178.121 72.2262L183.43 75.3835L184.215 81.5041L187.377 76.2022L193.507 75.4185Z" fill="#FBF7EB"/>
<path d="M97.2994 61.9118L91.9895 58.7552L91.2046 52.6347L88.0432 57.9366L81.9135 58.7196L87.2234 61.8769L88.0082 67.9974L91.1696 62.6955L97.2994 61.9118Z" fill="#FBF7EB"/>
<path d="M149.08 53.1357H146.685C144.009 53.1357 141.642 51.8694 140.161 49.9215C140.64 53.7569 143.463 56.703 146.881 56.703H148.884C152.301 56.703 155.126 53.7562 155.604 49.9215C154.124 51.8694 151.755 53.1357 149.08 53.1357Z" fill="white"/>
<g opacity="0.60001">
<g opacity="0.60001">
<path opacity="0.60001" d="M-4.26765e-05 366.397C-0.585762 378.969 41.3766 391.01 84.5138 385.736C127.651 380.461 206.464 384.245 209.987 368.423C213.508 352.6 112.289 352.06 86.7591 352.06C61.2292 352.06 0.810213 349.115 0.0068239 366.397" fill="#D2A888"/>
</g>
</g>
<path d="M62.8498 368.591C62.8498 373.655 59.1171 377.761 54.513 377.761C49.9083 377.761 46.1763 373.655 46.1763 368.591C46.1763 363.527 49.9083 359.421 54.513 359.421C59.1171 359.421 62.8498 363.527 62.8498 368.591Z" fill="#606060"/>
<path d="M60.4877 368.454C60.4877 371.705 58.6282 374.341 56.3334 374.341C54.0393 374.341 52.1798 371.705 52.1798 368.454C52.1798 365.203 54.0393 362.566 56.3334 362.566C58.6282 362.566 60.4877 365.203 60.4877 368.454Z" fill="#A3A09D"/>
<path d="M24.184 363.106C23.1966 367.617 19.0705 370.586 14.9691 369.738C10.8677 368.889 8.34354 364.545 9.33164 360.034C10.3191 355.523 14.4452 352.554 18.5466 353.402C22.648 354.25 25.1721 358.595 24.184 363.106Z" fill="#606060"/>
<path d="M21.6847 362.489C21.0502 365.385 18.971 367.41 17.0401 367.01C15.1092 366.611 14.0586 363.939 14.6924 361.043C15.3269 358.146 17.4061 356.122 19.337 356.521C21.2679 356.921 22.3191 359.592 21.6847 362.489Z" fill="#A3A09D"/>
<path d="M74.2414 177.714C70.1153 174.834 54.4108 167.257 50.7371 174.44C49.9489 175.983 49.9097 177.969 49.6364 179.647C49.2677 181.907 48.9044 184.167 48.5446 186.427C47.7873 191.184 47.0457 195.943 46.3137 200.703C43.76 217.315 41.3416 233.946 38.8957 250.574C38.3601 254.218 37.8053 257.86 37.3041 261.509C36.8955 264.481 41.711 264.453 42.1155 261.509C45.5488 236.518 48.8873 211.52 52.701 186.577C53.045 184.327 53.3931 182.078 53.7454 179.83C54.0145 178.112 53.7275 176.013 55.7181 175.575C57.8797 175.098 60.6923 176.105 62.7337 176.724C65.7935 177.651 69.8482 181.084 72.945 181.882C74.273 182.224 76.0741 179.068 75.0455 178.35L74.2414 177.714Z" fill="#606060"/>
<path d="M68.3018 179.153C69.6476 181.31 72.4471 182.103 74.6973 183.163C75.8681 183.716 77.8099 184.351 78.7287 185.309C79.8205 186.448 79.3583 188.524 79.199 190.036C78.2624 198.938 77.3519 207.856 76.3473 216.756C75.1766 227.121 73.8809 237.472 72.6723 247.834C72.1113 252.636 71.5661 257.442 71.0752 262.251C70.841 264.546 70.6185 266.842 70.4194 269.139C70.2656 270.908 70.5712 273.462 69.2995 274.893C68.2585 276.064 68.6114 277.927 70.2464 278.379C74.3231 279.509 75.3682 275.295 75.6298 272.299C75.9621 268.493 76.2855 264.687 76.6797 260.886C77.6465 251.565 78.7802 242.263 79.8912 232.958C80.9624 223.983 82.0425 215.007 82.9276 206.013C83.3066 202.153 83.5003 198.264 84.0166 194.419C84.4691 191.046 85.4936 186.886 83.9802 183.637C82.7188 180.93 79.256 179.675 76.6515 178.523C74.413 177.532 71.7756 176.128 69.2885 176.796C68.275 177.068 67.7469 178.264 68.3018 179.153Z" fill="#606060"/>
<path d="M93.5296 262.799C95.9851 271.091 86.4907 360.35 77.8072 365.705C69.1238 371.06 11.5489 359.678 4.47907 354.423C-2.58732 349.167 15.9586 252.779 25.1035 250.448C34.2491 248.116 92.0203 257.718 93.5269 262.804" fill="#00A0D9"/>
<path d="M93.5296 262.799C92.9913 260.982 85.2677 258.588 75.1471 256.368C75.1492 256.372 75.1519 256.376 75.1533 256.38C77.6094 264.672 68.1143 353.931 59.4309 359.286C53.4158 362.995 23.9465 358.673 4.05057 353.919C4.18378 354.126 4.32386 354.304 4.48179 354.422C11.5489 359.677 69.1237 371.059 77.81 365.704C86.4934 360.349 95.9878 271.095 93.5323 262.799" fill="#067794"/>
<path d="M85.3653 258.891C85.9826 271.579 82.951 297.274 82.951 297.274" stroke="#292929" stroke-width="1.56263" stroke-miterlimit="10"/>
<path d="M26.1273 263.691C36.5913 264.993 47.0017 266.836 57.2473 269.331C60.0942 270.025 62.9157 270.807 65.7481 271.555C66.1402 271.658 66.3029 271.065 65.915 270.949C60.8365 269.44 55.6398 268.249 50.4563 267.159C45.3118 266.077 40.1255 265.189 34.9193 264.459C31.9982 264.05 29.0641 263.745 26.1273 263.471C25.9845 263.458 25.99 263.674 26.1273 263.691Z" fill="#292929"/>
<path d="M65.8092 271.507C65.6252 272.361 65.4886 273.219 65.365 274.084C65.2695 274.749 65.1494 275.549 65.7935 275.984C66.0358 276.148 66.3579 276.207 66.6305 276.085C66.9237 275.955 67.0809 275.662 67.1496 275.361C67.3027 274.689 67.2574 273.952 67.0988 273.287C67.0047 272.892 66.8557 272.508 66.6689 272.149C66.5797 271.977 66.4794 271.81 66.3702 271.65C66.2473 271.471 66.1546 271.373 65.9486 271.299C65.8834 271.276 65.7914 271.339 65.801 271.411C65.8271 271.605 65.8786 271.711 65.9864 271.874C66.0935 272.036 66.1903 272.204 66.2769 272.377C66.441 272.707 66.5598 273.054 66.6442 273.412C66.728 273.767 66.7692 274.129 66.7664 274.495C66.7637 274.813 66.7719 275.256 66.5824 275.531C66.3819 275.821 65.994 275.635 65.8463 275.388C65.6458 275.053 65.7406 274.592 65.7873 274.229C65.9013 273.334 66.0043 272.442 66.0564 271.54C66.0647 271.4 65.8388 271.368 65.8092 271.507Z" fill="#292929"/>
<path d="M57.3016 326.905C57.2611 326.905 57.2206 326.898 57.1814 326.883C52.7696 325.209 47.8003 323.02 47.7502 322.998C47.6595 322.959 47.5916 322.881 47.5634 322.787C47.5346 322.691 47.5497 322.59 47.6032 322.506L55.815 309.887C55.8788 309.789 55.9866 309.734 56.0986 309.734C56.1363 309.734 56.1741 309.74 56.2112 309.753C56.2723 309.775 62.4 311.935 65.481 312.733C65.5834 312.759 65.6671 312.832 65.7076 312.929C65.7482 313.026 65.7413 313.136 65.6884 313.228C65.6355 313.32 60.3545 322.428 57.5865 326.749C57.5227 326.849 57.4142 326.905 57.3016 326.905Z" fill="#436B47"/>
<path d="M56.0999 309.353C55.8761 309.353 55.6605 309.465 55.5334 309.66L47.3217 322.28C47.2139 322.445 47.1837 322.65 47.2407 322.84C47.297 323.029 47.4336 323.184 47.6149 323.264C47.665 323.286 52.6419 325.479 57.0626 327.156C57.1409 327.185 57.2226 327.199 57.3023 327.199C57.5275 327.199 57.7445 327.087 57.8715 326.888C60.6442 322.561 65.9281 313.446 65.9816 313.354C66.0874 313.172 66.1011 312.95 66.0201 312.756C65.9384 312.561 65.7708 312.416 65.5662 312.363C62.4996 311.569 56.3863 309.414 56.3252 309.392C56.251 309.366 56.1748 309.353 56.0999 309.353ZM56.0999 310.028C56.0999 310.028 62.2661 312.205 65.3966 313.016C65.3966 313.016 60.099 322.159 57.3023 326.525C52.8472 324.835 47.8882 322.647 47.8882 322.647L56.0999 310.028Z" fill="white"/>
<path d="M34.7311 308.942C34.6995 308.942 34.6673 308.938 34.6364 308.928L19.3102 304.451C19.1941 304.417 19.1055 304.325 19.0767 304.208C19.0479 304.091 19.0836 303.968 19.1708 303.885L29.3299 294.126C29.3937 294.064 29.4775 294.031 29.564 294.031C29.5894 294.031 29.6155 294.034 29.6402 294.04C29.7522 294.066 29.8428 294.146 29.882 294.254L35.0484 308.49C35.0916 308.609 35.0642 308.743 34.9769 308.836C34.9124 308.904 34.8231 308.942 34.7311 308.942Z" fill="#EEC621"/>
<path d="M29.5606 293.652C29.3882 293.652 29.2193 293.719 29.0923 293.841L18.9332 303.6C18.7594 303.767 18.688 304.013 18.7457 304.247C18.8027 304.48 18.9805 304.666 19.212 304.733L34.5381 309.21C34.6006 309.229 34.6645 309.238 34.7277 309.238C34.911 309.238 35.0902 309.162 35.22 309.025C35.3944 308.84 35.4493 308.572 35.3628 308.334L30.1957 294.097C30.1181 293.883 29.9362 293.722 29.7137 293.67C29.6629 293.658 29.6114 293.652 29.5606 293.652ZM29.5606 294.327L34.7277 308.563L19.4015 304.086L29.5606 294.327Z" fill="white"/>
<path d="M21.6709 327.248C21.4656 330.855 24.5425 333.905 28.109 334.575C32.1047 335.327 36.0591 332.252 36.4704 328.337C36.8818 324.422 33.4869 320.536 29.4295 320.323C25.7174 320.129 22.247 323.179 21.7265 326.703C21.6998 326.886 21.6812 327.068 21.6709 327.248Z" fill="#E44383"/>
<path d="M21.6709 327.248C21.4656 330.855 24.5425 333.905 28.109 334.575C32.1047 335.327 36.0591 332.252 36.4704 328.337C36.8818 324.422 33.4869 320.536 29.4295 320.323C25.7174 320.129 22.247 323.179 21.7265 326.703C21.6998 326.886 21.6812 327.068 21.6709 327.248Z" stroke="white" stroke-width="1.22797" stroke-miterlimit="10" stroke-linecap="round" stroke-linejoin="round"/>
<path d="M160.479 74.4586C160.604 74.4257 160.662 74.643 160.563 74.726C160.463 74.8089 160.316 74.7877 160.189 74.7616C157.195 74.1446 154.057 73.4473 151.762 71.4309C149.853 69.7552 148.742 67.3233 148.217 64.8407C147.692 62.358 147.704 59.7979 147.719 57.2604C146.989 56.003 145.584 55.6848 144.184 55.2899C142.152 54.7167 140.116 54.3938 138.084 53.8049C136.994 53.4895 132.706 51.7466 132.135 53.0994C131.985 53.4531 131.995 53.8515 132.002 54.2354C132.063 57.4215 131.768 60.6138 131.128 63.7348C130.622 66.203 130.78 68.951 128.699 70.7706C127.907 71.4624 126.918 71.8848 125.923 72.2248C123.681 72.992 121.316 73.3986 118.946 73.4254C118.734 79.4006 122.697 85.2757 127.869 88.2883C133.042 91.3016 139.356 91.9077 145.278 91.0184C149.476 90.3884 153.704 88.9623 156.788 86.049C159.873 83.1351 161.877 78.4619 160.479 74.4586Z" fill="#FA977E"/>
<path d="M115.022 33.6642C115.022 33.6642 107.859 42.4326 106.365 48.161C105.157 52.7958 105.831 60.8361 123.429 50.0595C141.028 39.2829 115.022 33.6642 115.022 33.6642Z" fill="#240226"/>
<path d="M169.131 358.375L152.129 354.324L144.026 346.56C146.282 342.333 145.172 332.257 145.254 331.72L145.277 331.709C145.92 331.288 159.262 322.601 159.262 328.113V328.124C159.226 337.476 160.466 346.572 160.466 346.572L166.745 351.253L169.131 358.375Z" fill="#FFC29A"/>
<path d="M163.981 243.259L163.197 248.699L160.063 312.203L159.28 328.128V328.14L145.295 331.724L145.272 331.736L144.699 315.238L142.15 242.48L163.981 243.259Z" fill="#FF9E7F"/>
<path d="M169.131 358.375L152.129 354.324L143.008 350.751C145.265 346.525 145.172 332.257 145.253 331.72L144.68 315.223C145.008 315.012 145.347 314.814 145.721 314.639C150.129 312.526 154.913 314.769 159.848 314.757L159.262 328.113V328.124C159.226 337.476 160.466 346.572 160.466 346.572L166.745 351.253L169.131 358.375Z" fill="#AB5543"/>
<path d="M139.81 360.295C139.81 360.295 138.613 361.319 137.916 364.421C137.6 365.828 138.601 367.194 140.04 367.321C143.836 367.653 151.084 368.092 155.841 367.155C162.535 365.836 163.416 368.034 171.871 367.947C180.327 367.858 188.606 367.419 189.223 361.966L153.639 359.856L139.81 360.295Z" fill="#E5A896"/>
<path d="M139.467 362.078C138.03 361.904 139.039 358.107 139.23 357.37C139.838 355.02 140.28 352.142 141.963 350.301C143.113 349.043 144.829 348.253 146.527 348.426C148.902 348.67 150.687 350.604 152.353 352.312C153.668 353.66 155.33 355.16 157.288 355.386C159.379 355.627 159.999 353.234 159.96 351.531C159.932 350.307 159.706 349.071 159.924 347.867C160.288 345.849 163.597 343.449 165.674 344.398C166.104 344.594 166.448 344.937 166.757 345.294C168.148 346.897 169.022 348.902 170.455 350.469C172.863 353.104 176.501 354.165 179.946 355.111C181.288 355.48 182.63 355.848 183.972 356.217C184.937 356.482 185.92 356.755 186.754 357.306C188.277 358.313 189.52 360.175 189.214 361.973C189.214 361.973 174.999 366.344 139.467 362.078Z" fill="#332426"/>
<path d="M130.06 354.33C128.041 358.021 123.354 355.059 120.235 354.316L112.132 346.552C114.389 342.326 113.278 332.25 113.383 331.701C114.026 331.281 127.368 322.594 127.368 328.108C127.368 333.426 127.693 338.743 128.271 344.03C128.632 347.333 131.649 349.956 130.45 353.434C130.334 353.769 130.204 354.066 130.06 354.33Z" fill="#FFC29A"/>
<path d="M132.188 237.226L131.312 248.702L128.178 312.205L127.394 328.131V328.142L113.409 331.727L113.386 331.739L112.813 315.241L108.802 236.642L132.188 237.226Z" fill="#FF9E7F"/>
<path d="M131.09 355.221C130.514 356.381 129.3 356.791 127.409 356.124C125.121 355.316 122.539 355.242 120.287 354.36C120.286 354.36 111.166 350.787 111.166 350.787C113.423 346.561 113.329 332.293 113.411 331.757L112.838 315.259C113.165 315.049 113.504 314.85 113.879 314.675C118.287 312.562 123.225 313.741 128.16 313.73C128.16 313.73 127.42 328.149 127.42 328.161C127.402 332.754 127.668 337.349 128.103 341.92C128.232 343.275 128.204 344.818 128.793 346.024C129.806 348.101 131.015 349.331 131.376 351.83C131.581 353.249 131.489 354.416 131.09 355.221Z" fill="#AB5543"/>
<path d="M167.757 183.404C168.241 184.361 167.87 187.148 167.975 188.875C168.395 195.802 168.689 202.523 168.729 209.508C168.745 212.333 168.589 215.157 168.433 217.978C167.847 228.575 167.261 239.172 166.676 249.768C157.518 248.782 148.19 251.492 139.102 249.986C139.513 244.514 138.244 238.781 138.589 233.309C138.704 231.471 138.751 229.63 138.735 227.789C138.722 226.293 138.67 224.797 138.603 223.302C138.569 222.533 138.53 221.765 138.493 220.996C138.482 220.791 138.472 220.585 138.462 220.379C138.455 220.227 138.497 219.939 138.434 219.803C138.287 219.489 138.107 219.933 138.095 220.123C138.016 221.377 137.922 222.631 137.82 223.883C137.719 225.128 137.611 226.372 137.503 227.615C137.397 228.834 137.292 230.053 137.195 231.272C137.075 232.788 136.032 249.296 135.929 249.305C125.123 250.202 113.96 250.587 103.338 248.415C102.922 243.519 103.425 238.691 102.969 233.84C101.445 217.647 101.889 201.271 104.286 185.183C104.341 184.815 104.401 184.435 104.606 184.123C105.113 183.354 106.217 183.34 107.138 183.393C118.151 184.023 129.277 181.905 140.187 183.53C143.004 183.949 145.803 184.618 148.652 184.618C151.736 184.619 154.769 183.836 157.849 183.666C160.281 183.532 163.02 182.508 165.422 183.149C166.71 183.492 167.45 182.795 167.757 183.404Z" fill="#240226"/>
<path d="M160.959 75.213C163.049 76.6171 165.118 78.046 166.695 80.024C168.794 82.6568 170.207 85.7572 171.578 88.8075C172.911 91.7708 174.427 95.4738 172.702 98.5811C171.13 101.409 167.872 103.148 167.966 106.875C168.055 110.398 169.357 114.128 169.767 117.658C170.789 126.456 169.767 135.552 170.07 144.404C170.457 155.693 169.865 167.025 170.893 178.235C171.041 179.853 170.86 181.597 169.869 182.886C169.071 183.923 167.851 184.538 166.646 185.052C159.73 188.003 151.869 188.697 144.541 187.003C140.831 186.145 137.425 183.269 133.635 182.896C127.96 182.338 122.18 185.659 116.518 186.341C113.321 186.725 108.486 187.33 105.406 186.123C102.329 184.917 103.211 180.184 103.131 177.5C102.896 169.686 102.889 161.82 104.116 154.078C105.058 148.126 106.722 142.303 107.526 136.326C108.35 130.201 109.661 124.067 103.384 121.374C100.55 120.158 97.8163 118.705 95.2256 117.033C94.7628 116.734 94.2862 116.409 94.0246 115.925C93.7143 115.351 93.7603 114.658 93.8214 114.008C94.7635 104.03 97.4119 94.2143 101.618 85.1141C102.714 82.7446 103.926 80.4052 105.57 78.3771C108.433 74.8469 112.484 72.4307 116.746 70.8428C119.467 69.8288 122.32 69.2104 125.169 68.6756C126.585 68.4096 128.025 68.0784 129.457 67.9138C130.286 67.8179 130.201 67.7198 130.617 68.2971C131.016 68.8538 131.182 69.787 131.596 70.4157C133.844 73.8246 137.584 75.6936 141.639 75.7347C143.774 75.7567 146.147 75.2747 147.92 74.0351C148.789 73.4283 149.509 72.6097 149.807 71.5771C150.241 70.0701 149.899 69.281 149.121 67.6245C152.221 69.4455 155.511 71.3584 158.421 73.4695C159.249 74.0701 160.106 74.6398 160.959 75.213Z" fill="#AB5543"/>
<path d="M129.579 34.9668C129.579 34.9668 130.543 35.7635 131.346 38.5938C132.701 33.6676 133.291 23.7912 133.643 21.4093C138.629 21.9215 150.405 25.6938 152.439 24.2992C157.667 25.4909 163.454 25.0747 165.369 19.9798C166.741 16.3316 166.29 12.1733 164.96 8.56693C164.292 6.7562 162.747 4.78298 160.769 4.17963C159.452 3.77786 158.012 3.95063 157.39 5.31503C157.311 5.48917 157.24 5.67841 157.208 5.86832C157.208 5.86832 160.547 6.29958 159.454 8.07946C158.858 9.05098 155.493 7.28482 156.492 4.79189C155.546 6.21662 155.606 6.9852 156.245 8.26183C155.111 8.79662 152.833 7.09627 151.041 6.14874C149.248 5.20052 145.545 4.63008 141.423 6.08086C139.683 3.59891 127.851 1.75115 123.076 11.0955C122.04 12.8075 117.037 11.2553 114.64 19.2736C112.242 27.292 112.508 47.9265 127.225 50.3049C131.388 50.7108 134.915 47.4664 134.915 47.4664L131.403 42.916L129.579 34.9668Z" fill="#3E9E9D"/>
<path d="M163.363 22.9684C160.183 26.9477 149.553 27.2741 142.542 23.1535C139.387 21.4483 134.581 20.5728 133.741 25.1829C133.457 26.9443 133.707 40.8144 128.48 38.6705C123.252 36.5272 123.922 27.6375 123.922 27.6375C123.922 27.6375 125.623 20.653 125.771 19.8995C125.919 19.146 134.218 13.4128 134.218 13.4128L143.084 11.8462L150.138 11.7694L162.516 22.797C162.516 22.797 163.511 22.7826 163.363 22.9684Z" fill="#3E9E9D"/>
<path d="M161.028 41.2746C160.903 42.4964 160.741 43.7059 160.516 44.8899C160.329 45.8875 160.091 46.8597 159.817 47.8073C159.804 47.8319 159.804 47.8696 159.792 47.8943C157.844 54.477 152.7 60.5852 145.896 61.5705C141.594 62.193 136.754 60.76 133.487 57.8057C132.297 56.73 131.378 55.3902 130.544 54.0204C129.716 52.6601 128.958 51.2566 128.277 49.8175C127.634 48.4593 127.829 47.8408 126.252 47.4754C123.709 46.8865 121.683 45.2129 120.263 43.0573C119.377 41.7237 118.703 40.19 118.703 38.5822C118.703 36.9737 119.502 35.3035 120.95 34.6049C122.399 33.8946 124.434 34.4685 125.033 35.9515C125.158 29.6184 127.718 23.2359 132.462 19.0097C137.193 14.7835 144.16 12.9762 150.203 14.9453C155.41 16.6409 160.179 21.6151 160.753 27.2125C161.215 31.6505 161.478 36.5747 161.028 41.2746Z" fill="#FF9E7F"/>
<path d="M139.948 42.5772C139.881 43.6907 138.017 44.4846 135.785 44.3509C133.553 44.2172 131.798 43.2066 131.865 42.0932C131.932 40.9804 133.796 40.1858 136.028 40.3195C138.259 40.4532 140.014 41.4638 139.948 42.5772Z" fill="#FF7D6F"/>
<path d="M153.475 45.8683C153.412 46.99 155.161 47.9999 157.395 48.1371C158.281 48.1871 159.105 48.0877 159.78 47.9005C159.792 47.8751 159.792 47.8381 159.805 47.8128C160.08 46.8659 160.317 45.893 160.504 44.8961C159.792 44.4724 158.769 44.1728 157.632 44.0981C155.41 43.9609 153.537 44.759 153.475 45.8683Z" fill="#FF7D6F"/>
<path d="M149.492 35.8582C149.478 36.6076 149.546 37.3453 149.639 38.0796C149.741 38.8132 149.91 39.5345 150.072 40.2565C150.245 40.9764 150.456 41.6874 150.685 42.3915C150.903 43.0984 151.144 43.8039 151.419 44.4861L151.482 44.6438L151.328 44.713C150.798 44.9523 150.253 45.1854 149.744 45.4768C149.491 45.6235 149.238 45.7716 149.005 45.9458C148.784 46.1233 148.532 46.3187 148.49 46.619C148.472 46.3057 148.715 46.0541 148.918 45.8464C149.134 45.6331 149.373 45.4487 149.624 45.2821C150.126 44.9523 150.639 44.6438 151.19 44.3956L151.1 44.6225C150.504 43.2369 150.046 41.806 149.73 40.3346C149.421 38.8688 149.259 37.3419 149.492 35.8582Z" fill="#6C352C"/>
<path d="M158.968 22.9C156.581 26.7353 147.506 27.5183 140.901 24.6161C137.944 23.4416 133.619 23.1687 133.359 27.3167C133.292 28.8978 134.956 41.0895 130.128 39.7437C125.3 38.3978 121.8 30.8744 121.8 30.8744C121.8 30.8744 125.736 24.1684 125.788 23.4889C125.84 22.8101 132.554 16.8994 132.554 16.8994L140.201 14.5991L151.062 11.2135L160.426 17.6549C160.426 17.6549 159.079 22.7217 158.968 22.9Z" fill="#3E9E9D"/>
<path d="M136.308 22.557C138.358 23.0191 140.177 24.0777 142.022 25.0376C143.834 25.9803 145.685 26.7832 147.738 26.9943C149.913 27.2185 152.139 26.873 154.192 26.1407C155.938 25.5175 157.649 24.5741 158.761 23.05C159.911 21.4737 160.221 19.1508 158.978 17.5396C158.881 17.4128 158.664 17.5266 158.757 17.6685C159.764 19.2125 159.521 21.2653 158.515 22.749C157.457 24.3101 155.693 25.2494 153.954 25.861C151.968 26.559 149.84 26.8936 147.738 26.6899C145.738 26.4966 143.919 25.7259 142.144 24.8285C140.274 23.883 138.414 22.8628 136.34 22.4425C136.266 22.4281 136.233 22.5399 136.308 22.557Z" fill="#007D79"/>
<path d="M154.642 4.66234C157.907 4.11453 161.305 5.48646 163.205 8.20702C164.132 9.53507 164.673 11.0907 164.761 12.7068C164.853 14.4002 164.586 16.2603 163.785 17.7735C162.929 19.3902 161.217 20.6497 159.314 20.3048C159.173 20.2795 159.111 20.4879 159.254 20.5222C160.832 20.8993 162.454 20.1293 163.436 18.8959C164.541 17.5089 164.957 15.6666 165.059 13.9313C165.267 10.3976 163.488 6.93313 160.289 5.29586C158.541 4.40044 156.519 4.1255 154.591 4.47585C154.468 4.49848 154.521 4.68291 154.642 4.66234Z" fill="#007D79"/>
<path d="M158.35 6.37635C160.029 7.25258 161.398 8.65331 162.206 10.3674C163.156 12.3817 163.193 14.6285 162.605 16.7478C162.581 16.8321 162.704 16.8623 162.734 16.7834C164.282 12.7506 162.218 8.11783 158.478 6.15832C158.334 6.0829 158.206 6.30093 158.35 6.37635Z" fill="#007D79"/>
<path d="M138.506 20.7744C141.331 22.171 144.407 23.172 147.585 23.1857C150.373 23.1973 153.41 22.4459 155.568 20.6023C156.642 19.6856 157.59 18.2561 157.087 16.8019C157.047 16.6894 156.881 16.734 156.907 16.8512C157.228 18.2458 156.371 19.5128 155.354 20.3877C154.304 21.2893 152.98 21.9111 151.664 22.3149C148.963 23.1439 146.077 23.0369 143.36 22.3451C141.723 21.9276 140.139 21.3133 138.613 20.5906C138.491 20.5323 138.382 20.7133 138.506 20.7744Z" fill="#007D79"/>
<path d="M130.815 26.8765C130.463 27.8604 130.556 28.8881 130.705 29.9029C130.889 31.1411 131.045 32.369 131.047 33.6237C131.049 35.6573 130.895 37.974 129.289 39.4262C129.231 39.4783 129.306 39.5756 129.372 39.5345C131.044 38.4992 131.237 36.1221 131.305 34.3608C131.352 33.1472 131.284 31.9323 131.104 30.7318C130.914 29.4716 130.613 28.184 131.047 26.9403C131.099 26.7936 130.867 26.7319 130.815 26.8765Z" fill="#007D79"/>
<path d="M128.686 29.4132C129.066 32.1091 129.436 35.0757 127.881 37.4939C127.851 37.5419 127.925 37.5831 127.957 37.5378C129.633 35.1279 129.244 32.1036 128.835 29.372C128.82 29.2747 128.673 29.3165 128.686 29.4132Z" fill="#007D79"/>
<path d="M115.091 34.8297C115.507 36.3929 116.024 37.9362 116.601 39.4473C116.914 40.2673 117.25 41.0887 117.66 41.8662C117.959 42.4353 118.299 43.0489 118.803 43.4651C118.886 43.5336 119 43.4253 118.923 43.3458C118.47 42.8782 118.172 42.255 117.892 41.6756C117.495 40.8549 117.149 40.0109 116.824 39.1587C116.275 37.7148 115.777 36.2434 115.372 34.7522C115.323 34.5712 115.042 34.648 115.091 34.8297Z" fill="#007D79"/>
<path d="M154.436 34.0069C155.067 33.4214 155.978 33.1403 156.829 33.309C157.793 33.4996 158.513 34.1557 159.284 34.7111C159.596 34.9366 159.969 34.4416 159.693 34.1817C158.905 33.4378 157.907 32.7358 156.811 32.5815C155.763 32.4341 154.703 32.7858 153.931 33.5023C153.594 33.8156 154.1 34.3196 154.436 34.0069Z" fill="black"/>
<path d="M143.175 33.1842C142.755 32.6556 141.988 32.4047 141.358 32.2223C140.679 32.0269 139.962 31.935 139.255 31.9487C137.81 31.9768 136.45 32.43 135.294 33.2884C134.929 33.5593 135.285 34.1784 135.655 33.9041C136.681 33.1417 137.982 32.7201 139.255 32.6865C139.882 32.67 140.506 32.7406 141.111 32.9045C141.746 33.0766 142.298 33.4461 142.928 33.6079C143.192 33.6765 143.325 33.3735 143.175 33.1842Z" fill="black"/>
<path d="M87.0064 161.121C86.9364 160.794 86.9013 160.479 86.8897 160.164C86.8313 157.502 88.8892 155.05 90.8064 153.042C93.1801 150.555 95.6123 148.033 98.6761 146.469C104.347 143.585 111.141 144.496 117.42 145.593C118.87 145.838 120.332 146.107 121.746 146.481C123.372 146.901 124.939 147.461 126.377 148.302C129.605 150.193 131.931 153.381 133.358 156.848C134.772 160.304 135.357 164.04 135.732 167.764C136.445 174.945 136.398 182.184 136.083 189.399C136.059 190.03 136.023 190.683 135.685 191.221C135.427 191.63 135.03 191.922 134.632 192.201C133.229 193.194 131.838 194.186 130.446 195.179C129.347 195.961 128.236 196.755 126.962 197.187C126.494 197.35 126.003 197.455 125.511 197.525C124.448 197.677 123.337 197.654 122.261 197.642C112.848 197.49 103.424 197.339 94.0103 197.187C92.9467 197.175 91.8357 197.14 90.9004 196.626C89.0059 195.599 88.6084 193.1 88.4209 190.952C88.0117 186.212 87.6024 181.46 87.1932 176.72C86.7256 171.384 86.2696 166.013 86.8196 160.689C86.843 160.515 86.8546 160.339 86.8897 160.164C87.1698 158.156 87.9533 155.937 89.8945 155.47" fill="#FFDCBC"/>
<path d="M136.102 189.438C136.079 190.068 136.044 190.722 135.705 191.259C135.447 191.667 135.05 191.959 134.652 192.24C133.249 193.232 131.857 194.225 130.466 195.217C129.367 195.999 128.256 196.793 126.982 197.225C126.514 197.389 126.023 197.494 125.532 197.564C126.479 183.938 127.204 170.231 125.497 156.7C125.251 154.738 124.924 152.753 124.258 150.897C123.731 149.426 122.27 147.943 121.766 146.519C123.392 146.939 124.959 147.499 126.397 148.34C129.624 150.232 131.952 153.419 133.378 156.886C134.793 160.343 135.377 164.079 135.751 167.803C136.465 174.983 136.418 182.222 136.102 189.438Z" fill="#F0B07B"/>
<path d="M122.095 161.876C121.97 161.871 122.112 161.649 122.207 161.729C122.303 161.809 122.261 161.961 122.209 162.073C121.28 164.068 119.221 165.49 117.024 165.652C116.073 165.723 115.041 165.538 114.368 164.864C113.555 164.049 113.482 162.775 113.476 161.625C113.469 159.944 113.631 157.999 115.012 157.035C115.301 158.201 116.22 158.389 117.273 158.971C118.986 159.919 120.381 160.928 122.095 161.876Z" stroke="#B4A9AA" stroke-width="1.58529" stroke-miterlimit="10" stroke-linecap="round" stroke-linejoin="round"/>
<path d="M122.163 162.424C130.224 150.196 135.734 136.466 143.364 123.966C145.12 121.087 146.988 118.278 148.785 115.424C155.553 104.679 161.939 92.7347 167.688 81.413C167.24 79.6009 166.301 77.8053 165.024 76.4422C163.55 74.868 161.682 73.9994 159.485 74.1502C158.454 76.1001 157.422 78.05 156.391 80.0006C148.435 95.0432 136.912 107.757 129.437 123.19C124.033 134.347 120.177 146.3 113.526 156.764C117.097 158.249 119.008 160.189 122.163 162.424Z" fill="black"/>
<path d="M137.064 108.671C139.037 109.93 141.039 111.142 143.012 112.404C143.986 113.026 144.953 113.66 145.913 114.304C146.394 114.625 146.872 114.95 147.349 115.277C147.836 115.611 148.323 116.035 148.855 116.289C149.292 116.498 149.671 115.879 149.24 115.632C149.104 115.555 148.97 115.476 148.834 115.4C148.616 115.278 148.413 115.516 148.51 115.722C148.579 115.866 148.649 116.009 148.718 116.153C148.918 115.999 149.117 115.846 149.317 115.692C148.909 115.29 148.369 114.99 147.897 114.666C147.421 114.339 146.943 114.014 146.463 113.691C145.48 113.031 144.491 112.383 143.494 111.744C141.497 110.466 139.481 109.231 137.382 108.127C137.023 107.937 136.72 108.453 137.064 108.671Z" fill="#505050"/>
<path d="M207.171 93.9304L198.275 89.5451L178.695 88.4502L162.595 85.321C162.595 85.321 154.543 132.78 153.033 138.847C158.603 142.571 168.784 145.302 168.784 145.302L188.159 143.795L197.523 146.521C197.523 146.521 202.138 117.266 202.793 113.859C203.446 110.452 207.171 93.9304 207.171 93.9304Z" fill="#92C7C7"/>
<path d="M197.764 89.6794C197.706 90.1107 197.527 90.496 197.43 90.9177C197.322 91.3921 197.271 91.8824 197.165 92.3582C196.963 93.2646 196.702 94.1545 196.429 95.041C195.892 96.7784 195.37 98.5192 194.884 100.271C193.925 103.725 193.113 107.219 192.351 110.721C190.843 117.651 189.711 124.661 188.919 131.708C188.469 135.71 188.173 139.721 187.896 143.738C187.871 144.103 188.454 144.106 188.468 143.738C188.755 136.593 189.584 129.437 190.684 122.375C191.791 115.269 193.275 108.246 195.202 101.317C195.728 99.4256 196.313 97.5545 196.877 95.6745C197.175 94.6818 197.449 93.6787 197.66 92.6633C197.752 92.2156 197.84 91.7631 197.893 91.3085C197.958 90.7387 197.833 90.2581 197.811 89.6856C197.81 89.6602 197.768 89.6513 197.764 89.6794Z" fill="white"/>
<path d="M178.057 86.9371C177.374 88.7327 177.122 90.7711 176.724 92.6497C176.329 94.5105 175.975 96.3795 175.624 98.2492C174.912 102.043 174.237 105.845 173.586 109.65C172.301 117.17 171.156 124.72 170.171 132.285C169.896 134.394 169.649 136.506 169.418 138.619C169.177 140.832 168.84 143.072 168.773 145.297C168.765 145.577 169.225 145.652 169.272 145.365C169.578 143.524 169.692 141.642 169.896 139.788C170.104 137.897 170.333 136.008 170.549 134.118C170.995 130.195 171.489 126.277 172.03 122.367C173.087 114.722 174.386 107.106 175.898 99.5388C176.314 97.4559 176.761 95.3792 177.18 93.2962C177.595 91.2277 178.258 89.0886 178.401 86.9837C178.415 86.7739 178.122 86.7657 178.057 86.9371Z" fill="white"/>
<path d="M140.36 103.323C142.184 104.561 144.422 105.08 146.498 105.738C148.781 106.462 151.064 107.186 153.348 107.91C153.85 108.069 154.065 107.282 153.565 107.123L146.878 105.003C145.814 104.666 144.748 104.336 143.687 103.993C142.65 103.659 141.617 103.338 140.649 102.828C140.32 102.655 140.055 103.117 140.36 103.323Z" fill="#505050"/>
<path d="M194.262 122.178C195.476 123.222 196.705 124.278 198.131 125.007C199.791 125.857 201.269 126.26 202.781 124.997C206.301 122.057 207.835 118.144 208.323 113.694C208.601 111.15 208.325 109.755 206.728 107.797C205.134 105.841 203.08 104.303 200.934 103C199.501 102.131 197.959 101.339 196.288 101.196C195.368 101.118 194.174 101.501 194.153 102.423C194.14 102.983 194.59 103.432 195.008 103.808C196.212 104.892 197.416 105.976 198.62 107.06C196.819 106.113 194.808 105.569 192.775 105.476C192.343 105.457 191.895 105.46 191.502 105.639C191.108 105.817 190.784 106.214 190.821 106.644C190.855 107.044 191.174 107.355 191.473 107.625C192.397 108.46 193.319 109.294 194.243 110.129C193.265 110.123 192.295 109.824 191.321 109.913C190.346 110.002 189.297 110.686 189.311 111.663C189.323 112.448 189.992 113.045 190.606 113.535C191.735 114.437 192.906 115.306 193.994 116.254C192.833 115.883 189.949 114.68 189.747 116.744C189.55 118.758 192.934 121.035 194.262 122.178Z" fill="#FF9E7F"/>
<path d="M193.644 116.145C193.81 116.919 194.825 117.235 195.453 117.518C196.025 117.775 196.498 118.157 197.025 118.487C197.61 118.853 198.208 119.209 198.825 119.522C199.245 119.735 199.783 120.094 200.277 120.041C200.405 120.027 200.456 119.874 200.343 119.798C199.38 119.153 198.303 118.669 197.316 118.053C196.821 117.746 196.414 117.395 195.882 117.144C195.527 116.975 195.156 116.841 194.804 116.666C194.444 116.488 194.142 116.232 193.803 116.023C193.718 115.97 193.626 116.056 193.644 116.145Z" fill="#CD4A57"/>
<path d="M195.224 110.523C196.197 111.344 197.271 112.049 198.281 112.824C198.792 113.215 199.291 113.62 199.796 114.02C200.297 114.416 200.792 114.874 201.381 115.132C201.478 115.174 201.607 115.081 201.539 114.974C201.206 114.45 200.701 114.063 200.229 113.668C199.729 113.251 199.209 112.856 198.691 112.461C197.654 111.672 196.602 110.845 195.449 110.23C195.272 110.135 195.055 110.38 195.224 110.523Z" fill="#CD4A57"/>
<path d="M198.314 106.82C198.821 107.574 199.656 108.133 200.347 108.706C201.265 109.467 202.171 110.259 203.122 110.98C203.489 111.258 203.868 111.523 204.229 111.807C204.331 111.888 204.453 111.768 204.372 111.665C203.787 110.926 203.047 110.335 202.326 109.736C201.408 108.972 200.466 108.237 199.551 107.47C199.207 107.181 198.86 106.897 198.487 106.647C198.383 106.577 198.243 106.716 198.314 106.82Z" fill="#CD4A57"/>
<path d="M178.744 111.482C178.823 111.973 178.773 112.494 178.626 112.975C178.331 113.917 177.613 114.447 177.171 115.272C176.856 115.861 176.994 116.568 176.836 117.225C176.59 118.256 176.06 119.229 175.322 120.004C175.027 120.309 174.319 120.662 174.152 121.025C174.083 121.162 174.211 121.614 174.182 121.8C174.132 122.125 173.956 122.448 173.788 122.733C172.569 124.726 170.77 126.267 168.813 127.504C167.82 128.142 166.788 128.722 165.726 129.242C164.802 129.694 163.937 129.704 162.944 129.929C160.652 130.459 158.489 130.44 156.149 130.381C154.095 130.332 151.784 130.283 149.985 131.422C146.465 133.65 143.259 136.448 139.69 138.667C133.457 142.554 127.233 146.432 120.999 150.32C117.027 152.794 113.035 155.277 108.699 157.035C106.684 157.84 104.432 158.498 102.377 157.811C100.558 157.202 99.1918 155.622 98.4248 153.864C97.6681 152.097 97.4222 150.163 97.2451 148.258C96.498 140.62 96.4877 132.914 97.1956 125.266C97.3433 123.656 97.2355 120.838 97.4813 119.307C97.5204 119.022 97.4312 118.459 97.4504 118.352L97.953 118.924L98.0313 118.963C98.0711 118.983 98.1199 119.002 98.1597 119.022C98.2284 119.052 98.3067 119.091 98.376 119.12L99.693 119.729C99.7033 119.729 99.7033 119.729 99.7129 119.739C100.647 120.2 101.581 120.662 102.515 121.123C106.045 122.851 111.394 124.775 114.923 126.503C114.973 126.886 114.55 134.789 116.398 133.699C119.21 132.02 122.356 131.5 125.365 130.322C129.317 128.771 133.034 126.699 136.819 124.805C140.605 122.91 144.833 121.781 148.038 118.924C149.493 117.628 150.437 115.881 151.391 114.192C152.62 111.993 153.927 109.853 155.215 107.693C156.258 105.945 157.153 104.286 158.873 103.059C159.158 102.863 159.463 102.676 159.807 102.667C160.446 102.647 160.957 103.265 161.056 103.904C161.144 104.532 160.928 105.16 160.711 105.769C160.269 107.025 159.826 108.282 159.384 109.539C159.276 109.853 159.177 110.235 159.394 110.481C159.541 110.648 159.778 110.678 159.994 110.697C165.519 111.247 170.642 108.174 175.716 105.926C176.167 105.729 176.64 105.533 177.132 105.553C178.056 105.592 178.803 106.446 178.921 107.359C179.058 108.429 177.986 109.323 178.144 110.157C178.213 110.58 178.665 110.992 178.744 111.482Z" fill="#FF9E7F"/>
<path d="M178.126 109.425C177.114 109.848 176.154 110.404 175.155 110.863C173.922 111.431 172.666 111.949 171.405 112.449C170.164 112.941 168.916 113.415 167.665 113.879C166.627 114.265 165.57 114.618 164.568 115.091C164.375 115.181 164.511 115.49 164.711 115.431C167.093 114.726 169.431 113.751 171.742 112.845C172.977 112.361 174.208 111.858 175.417 111.31C176.392 110.868 177.48 110.417 178.282 109.693C178.394 109.591 178.276 109.362 178.126 109.425Z" fill="#CD4A57"/>
<path d="M176.89 115.253C176.371 115.364 175.897 115.652 175.428 115.889C174.942 116.134 174.454 116.378 173.964 116.616C172.899 117.133 171.821 117.623 170.726 118.073C169.699 118.496 168.653 118.872 167.584 119.174C167.066 119.321 166.545 119.451 166.017 119.558C165.439 119.676 164.821 119.726 164.266 119.926C164.097 119.987 164.137 120.204 164.307 120.225C165.375 120.359 166.612 119.972 167.636 119.702C168.767 119.403 169.875 119.022 170.962 118.591C171.996 118.18 173.007 117.713 174.007 117.226C174.551 116.961 175.091 116.69 175.63 116.415C176.123 116.163 176.656 115.934 177.068 115.558C177.21 115.428 177.058 115.217 176.89 115.253Z" fill="#CD4A57"/>
<path d="M174.006 121.561C173.572 121.76 173.238 122.09 172.842 122.352C172.468 122.6 172.073 122.814 171.67 123.01C170.773 123.447 169.822 123.761 168.868 124.047C167.853 124.351 166.833 124.64 165.816 124.936C164.679 125.268 163.528 125.662 162.328 125.614C162.123 125.605 162.068 125.949 162.278 125.979C163.453 126.147 164.549 125.8 165.67 125.484C166.808 125.164 167.949 124.853 169.08 124.514C170.026 124.231 170.966 123.914 171.858 123.489C172.656 123.109 173.771 122.555 174.169 121.724C174.222 121.613 174.116 121.511 174.006 121.561Z" fill="#CD4A57"/>
<path d="M115.915 125.675C115.851 125.597 115.838 125.51 115.877 125.414L115.937 125.086C115.965 124.923 115.991 124.758 116.019 124.594C116.082 124.211 116.147 123.828 116.215 123.446C116.339 122.735 116.469 122.026 116.604 121.317C116.89 119.818 117.197 118.323 117.525 116.833C118.176 113.877 118.983 110.959 119.625 108.002C119.679 107.755 119.335 107.664 119.25 107.899C118.253 110.64 117.575 113.482 116.937 116.326C116.3 119.165 115.731 122.034 115.318 124.916C115.266 125.276 115.102 126.216 115.746 126.186C116.022 126.173 116.306 125.842 116.073 125.61C116.018 125.555 115.911 125.593 115.915 125.675Z" fill="#8D4234"/>
<path d="M90.419 369.551C90.419 369.551 88.5019 371.123 89.1055 373.293C89.709 375.462 96.6621 379.576 104.073 379.487C111.484 379.398 116.425 372.327 119.879 370.072C123.333 367.817 130.158 366.87 131.912 364.559C133.667 362.248 135.868 358.44 133.32 354.772L109.965 365.269L90.419 369.551Z" fill="#E5A896"/>
<path d="M129.991 346.788C129.571 346.682 129.135 346.639 128.702 346.665C128.417 346.683 128.117 346.736 127.9 346.92C126.425 348.174 126.556 350.294 125.386 351.686C124.918 352.242 124.196 352.613 123.473 352.539C122.526 352.444 121.793 351.638 121.402 350.772C120.172 348.044 121.972 345.156 119.851 342.792C118.908 341.741 117.6 341.058 116.231 340.712C115.069 340.419 113.816 340.36 112.691 340.771C110.55 341.553 110.329 343.444 110.016 345.413C109.442 349.041 107.901 352.026 106.193 355.225C104.841 357.755 102.501 359.422 100.276 361.236C98.2483 362.889 96.2138 364.546 93.989 365.923C92.7661 366.679 91.4532 367.378 90.5818 368.52C89.7097 369.663 89.4316 371.416 90.3902 372.487C90.3902 372.487 99.8537 379.006 107.562 375.985C115.271 372.963 115.749 367.144 121.227 365.083C123.199 364.341 125.16 363.288 127.146 362.673C129.094 362.071 130.769 361.552 132.276 360.073C132.812 359.548 133.293 358.944 133.545 358.237C133.837 357.419 133.803 356.526 133.765 355.659C133.734 354.942 133.703 354.226 133.672 353.509C133.59 351.636 133.453 349.612 132.242 348.179C131.664 347.494 130.86 347.008 129.991 346.788Z" fill="#332426"/>
<path d="M107.105 245.248C108.959 245.261 110.824 245.274 112.647 245.614C115.374 246.122 118.064 246.257 120.841 246.305C123.643 246.355 126.468 246.149 129.255 245.952C131.537 245.791 133.828 245.773 136.112 245.902C136.339 245.915 136.581 245.935 136.758 246.076C137.025 246.289 137.04 246.682 137.028 247.022C136.97 248.62 136.808 250.215 136.542 251.792C136.463 252.263 136.082 252.632 135.61 252.705C124.57 254.416 113.226 254.155 102.278 251.936C101.889 251.858 101.482 251.767 101.186 251.504C100.557 250.946 100.72 249.943 100.935 249.132C101.24 247.981 100.706 245.461 101.832 244.997C102.754 244.616 106.035 245.248 107.105 245.248Z" fill="#B4A9AA"/>
<path d="M143.381 245.59C147.588 245.439 151.944 245.328 156.143 245.615C160.088 245.884 163.729 245.244 167.706 245.368C167.896 245.374 168.1 245.387 168.254 245.523C168.484 245.727 168.512 246.119 168.513 246.46C168.522 247.971 168.453 249.481 168.306 250.98C168.244 251.609 167.773 252.131 167.154 252.265C158.084 254.227 148.705 254.282 139.579 252.42C139.251 252.354 138.906 252.276 138.648 252.021C138.101 251.483 138.201 250.476 138.353 249.659C138.567 248.499 138.605 246.011 139.531 245.513C140.29 245.105 142.485 245.622 143.381 245.59Z" fill="#B4A9AA"/>
<path d="M123.125 3.771C123.225 4.70825 122.551 5.54883 121.62 5.64824C120.689 5.74766 119.853 5.0682 119.752 4.13096C119.652 3.19302 120.326 2.35314 121.257 2.25372C122.188 2.15431 123.024 2.83376 123.125 3.771Z" fill="#240226"/>
<path d="M135.828 18.8547C134.395 16.8389 133.713 13.0694 137.7 10.6704C141.688 8.28235 145.05 12.1308 145.05 12.1308L135.828 18.8547ZM121.402 4.32013C115.693 9.03927 105.843 21.6362 114.429 36.5513C114.429 36.5513 148.867 11.7057 154.7 8.14454C151.277 3.43499 138.05 -5.27379 121.402 4.32013Z" fill="#240226"/>
<path d="M87.7274 160.984C88.7498 166.741 93.5509 171.242 98.8615 173.225C101.945 174.377 105.291 174.781 108.57 174.621C111.699 174.468 114.942 173.869 117.653 172.224C120.723 170.361 122.553 167.223 124.154 164.118C124.369 163.699 123.736 163.328 123.52 163.748C122.152 166.408 120.635 169.178 118.181 170.999C115.738 172.81 112.674 173.558 109.689 173.836C103.661 174.397 97.2321 173.004 92.7352 168.755C90.4582 166.604 88.872 163.913 88.1146 160.877C88.0515 160.624 87.6827 160.734 87.7274 160.984Z" fill="#B58258"/>
<path d="M89.7118 160.71C89.9693 160.924 90.1712 161.078 90.5076 161.139C90.8695 161.207 91.2369 161.189 91.6022 161.178C92.512 161.153 93.4204 161.104 94.3303 161.073C96.1492 161.009 97.9695 160.96 99.7899 160.936C101.611 160.912 103.432 160.914 105.252 160.942C106.163 160.956 107.073 160.976 107.982 161.003C108.861 161.029 109.733 161.136 110.589 160.906C110.769 160.858 110.748 160.619 110.589 160.562C109.751 160.262 108.865 160.31 107.982 160.287C107.13 160.264 106.276 160.246 105.423 160.234C103.659 160.21 101.895 160.21 100.131 160.234C98.3671 160.258 96.6038 160.304 94.8418 160.388C93.989 160.428 93.1362 160.473 92.284 160.526C91.5356 160.574 90.542 160.812 89.8237 160.518C89.718 160.476 89.626 160.639 89.7118 160.71Z" fill="#B58258"/>
<path d="M103.678 171.543C102.844 172.343 102.705 173.612 102.699 174.766C102.693 175.944 102.774 177.123 102.942 178.289C103.126 179.576 103.702 181.123 104.997 181.257C106.168 181.378 107.063 180.202 107.416 179.08C108.166 176.697 107.64 174.122 107.109 171.681C107.07 171.498 107.022 171.302 106.877 171.184C106.751 171.08 106.578 171.059 106.416 171.043C105.423 170.94 104.212 170.936 103.677 171.779" fill="#B58258"/>
<path d="M125.459 201.436C124.414 204.382 123.037 207.245 120.634 209.337C118.521 211.175 115.831 212.151 113.146 212.806C111.593 213.184 110.016 213.453 108.443 213.735C107.938 213.825 108.158 214.574 108.653 214.497C111.552 214.043 114.48 213.5 117.193 212.347C120.039 211.137 122.309 209.181 123.949 206.56C124.898 205.042 125.684 203.357 126.044 201.597C126.122 201.214 125.59 201.069 125.459 201.436Z" fill="#B4A9AA"/>
<path d="M165.285 189.918C165.262 190.24 165.225 190.56 165.224 190.885C165.224 191.22 165.223 191.554 165.222 191.889C165.222 192.212 165.23 192.533 165.246 192.857C165.259 193.154 165.295 193.497 165.419 193.77C165.454 193.845 165.583 193.845 165.618 193.77C165.737 193.509 165.774 193.178 165.789 192.894C165.807 192.559 165.815 192.225 165.814 191.889C165.813 191.567 165.813 191.244 165.812 190.922C165.811 190.585 165.776 190.254 165.751 189.918C165.73 189.619 165.307 189.618 165.285 189.918Z" fill="#B4A9AA"/>
<path d="M165.354 196.02C165.189 196.517 165.069 197.025 165.007 197.547C164.948 198.041 164.884 198.593 165.118 199.054C165.174 199.166 165.325 199.12 165.362 199.022C165.537 198.568 165.495 198.05 165.548 197.573C165.601 197.091 165.685 196.613 165.809 196.145C165.888 195.85 165.449 195.733 165.354 196.02Z" fill="#B4A9AA"/>
<path d="M165.217 202.465C165.217 202.805 165.204 203.147 165.218 203.486C165.224 203.653 165.243 203.819 165.25 203.987C165.253 204.09 165.26 204.181 165.294 204.279C165.283 204.249 165.305 204.335 165.307 204.347C165.314 204.401 165.321 204.454 165.329 204.508C165.361 204.753 165.678 204.753 165.711 204.508C165.721 204.436 165.728 204.325 165.745 204.273C165.756 204.236 165.781 204.168 165.786 204.107C165.789 204.068 165.789 204.027 165.79 203.987C165.796 203.819 165.815 203.653 165.822 203.486C165.835 203.147 165.823 202.805 165.823 202.465C165.823 202.301 165.684 202.162 165.519 202.162C165.355 202.162 165.217 202.301 165.217 202.465Z" fill="#B4A9AA"/>
<path d="M165.354 207.744C165.32 208.341 165.27 208.929 165.276 209.529C165.282 210.102 165.286 210.717 165.444 211.273C165.47 211.367 165.608 211.367 165.634 211.273C165.792 210.717 165.796 210.102 165.802 209.529C165.808 208.929 165.758 208.341 165.724 207.744C165.711 207.507 165.367 207.506 165.354 207.744Z" fill="#B4A9AA"/>
<path d="M165.011 213.023C164.99 213.428 164.993 213.831 164.994 214.237C164.994 214.437 165.002 214.632 165.022 214.832C165.041 215.024 165.047 215.232 165.127 215.41C165.156 215.476 165.273 215.476 165.303 215.41C165.379 215.238 165.387 215.04 165.405 214.854C165.427 214.647 165.435 214.445 165.436 214.237C165.437 213.831 165.44 213.428 165.419 213.023C165.405 212.761 165.024 212.761 165.011 213.023Z" fill="#B4A9AA"/>
<path d="M164.667 218.234C164.618 218.83 164.623 219.422 164.623 220.019C164.623 220.319 164.643 220.614 164.665 220.912C164.675 221.047 164.669 221.183 164.691 221.316C164.715 221.47 164.752 221.619 164.774 221.774C164.794 221.907 165.026 221.907 165.045 221.774C165.068 221.619 165.103 221.469 165.129 221.316C165.15 221.183 165.145 221.047 165.155 220.912C165.175 220.614 165.197 220.319 165.197 220.019C165.197 219.422 165.202 218.83 165.152 218.234C165.127 217.923 164.693 217.922 164.667 218.234Z" fill="#B4A9AA"/>
<path d="M164.736 224.679C164.712 225.124 164.726 225.572 164.728 226.018C164.73 226.243 164.729 226.467 164.768 226.688C164.805 226.904 164.804 227.12 164.857 227.333C164.882 227.43 165.03 227.43 165.055 227.333C165.108 227.12 165.105 226.903 165.145 226.688C165.185 226.468 165.182 226.242 165.184 226.018C165.186 225.572 165.2 225.124 165.176 224.679C165.161 224.396 164.751 224.396 164.736 224.679Z" fill="#B4A9AA"/>
<path d="M164.599 230.438C164.434 231.034 164.33 231.638 164.3 232.256C164.27 232.869 164.389 233.462 164.518 234.057C164.549 234.197 164.775 234.166 164.768 234.023C164.744 233.454 164.808 232.892 164.853 232.323C164.898 231.736 164.978 231.152 165.116 230.58C165.195 230.246 164.691 230.105 164.599 230.438Z" fill="#B4A9AA"/>
<path d="M164.461 237.226C164.429 237.762 164.4 238.294 164.399 238.831C164.398 239.095 164.403 239.355 164.417 239.618C164.433 239.896 164.492 240.161 164.516 240.436C164.532 240.624 164.792 240.625 164.809 240.436C164.834 240.161 164.893 239.896 164.908 239.618C164.921 239.355 164.926 239.095 164.926 238.831C164.924 238.294 164.896 237.762 164.863 237.226C164.847 236.968 164.477 236.967 164.461 237.226Z" fill="#B4A9AA"/>
<path d="M165.011 243.671C164.98 243.969 164.99 244.264 164.993 244.563C164.996 244.712 165.01 244.868 165.048 245.01C165.066 245.075 165.067 245.149 165.076 245.216C165.087 245.297 165.099 245.376 165.114 245.457C165.137 245.581 165.344 245.581 165.366 245.457C165.393 245.311 165.394 245.153 165.432 245.01C165.469 244.868 165.485 244.712 165.487 244.563C165.491 244.264 165.501 243.969 165.47 243.671C165.457 243.548 165.374 243.442 165.24 243.442C165.105 243.442 165.024 243.547 165.011 243.671Z" fill="#B4A9AA"/>
<path d="M105.114 198.351C105.109 198.396 105.109 198.447 105.098 198.491C105.086 198.539 105.07 198.579 105.065 198.631C105.06 198.711 105.065 198.792 105.065 198.872C105.065 199.045 105.064 199.219 105.065 199.392C105.068 199.568 105.098 199.739 105.119 199.913C105.14 200.083 105.148 200.261 105.195 200.425C105.226 200.537 105.39 200.537 105.422 200.425C105.469 200.261 105.477 200.083 105.497 199.913C105.519 199.739 105.549 199.568 105.55 199.392C105.552 199.219 105.55 199.045 105.55 198.872C105.55 198.792 105.556 198.711 105.55 198.631C105.548 198.582 105.53 198.553 105.52 198.511C105.508 198.46 105.508 198.402 105.503 198.351C105.475 198.101 105.141 198.1 105.114 198.351Z" fill="#B4A9AA"/>
<path d="M105.059 204.179C104.979 204.536 104.939 204.894 104.906 205.257C104.898 205.347 104.89 205.437 104.882 205.527C104.874 205.616 104.884 205.701 104.883 205.79C104.881 205.962 104.873 206.131 104.896 206.303C104.915 206.445 105.109 206.407 105.149 206.303C105.205 206.154 105.225 205.996 105.253 205.839C105.27 205.745 105.298 205.657 105.307 205.56C105.317 205.465 105.327 205.37 105.337 205.274C105.373 204.927 105.405 204.578 105.447 204.231C105.474 204.01 105.107 203.963 105.059 204.179Z" fill="#B4A9AA"/>
<path d="M104.839 210.692C104.839 211.184 104.8 211.693 104.918 212.174C104.938 212.256 105.065 212.256 105.085 212.174C105.203 211.693 105.164 211.184 105.164 210.692C105.164 210.483 104.839 210.483 104.839 210.692Z" fill="#B4A9AA"/>
<path d="M105.072 216.246C105.065 216.599 105.053 216.953 105.062 217.308C105.067 217.48 105.065 217.655 105.077 217.828C105.089 217.999 105.085 218.211 105.166 218.364C105.218 218.462 105.374 218.462 105.425 218.364C105.504 218.215 105.5 218.015 105.512 217.848C105.527 217.669 105.524 217.487 105.529 217.308C105.539 216.953 105.526 216.599 105.519 216.246C105.513 215.959 105.078 215.958 105.072 216.246Z" fill="#B4A9AA"/>
<path d="M105.347 222.622C105.344 223.109 105.337 223.595 105.356 224.082C105.374 224.57 105.429 225.055 105.484 225.541C105.499 225.672 105.673 225.672 105.688 225.541C105.743 225.055 105.798 224.57 105.817 224.082C105.835 223.595 105.828 223.109 105.826 222.622C105.824 222.315 105.349 222.314 105.347 222.622Z" fill="#B4A9AA"/>
<path d="M105.821 228.724C105.828 229.606 105.984 230.483 106.049 231.361C106.061 231.516 106.282 231.517 106.292 231.361C106.321 230.924 106.282 230.479 106.266 230.042C106.251 229.604 106.204 229.163 106.203 228.724C106.203 228.478 105.819 228.478 105.821 228.724Z" fill="#B4A9AA"/>
<path d="M105.635 234.894C105.699 235.398 105.763 235.902 105.827 236.406C105.858 236.651 105.896 236.894 105.937 237.137C105.975 237.376 105.994 237.644 106.093 237.865C106.135 237.96 106.304 237.938 106.321 237.836C106.359 237.604 106.312 237.352 106.29 237.119C106.268 236.871 106.244 236.624 106.211 236.377L106.018 234.894C106.005 234.792 105.94 234.705 105.827 234.703C105.734 234.703 105.622 234.792 105.635 234.894Z" fill="#B4A9AA"/>
<path d="M106.226 240.996C106.224 241.491 106.206 241.989 106.225 242.484C106.235 242.733 106.254 242.981 106.269 243.228C106.282 243.461 106.293 243.719 106.37 243.941C106.402 244.035 106.528 244.035 106.56 243.941C106.637 243.719 106.648 243.462 106.661 243.228C106.676 242.981 106.696 242.733 106.705 242.484C106.724 241.989 106.707 241.491 106.705 240.996C106.703 240.689 106.227 240.689 106.226 240.996Z" fill="#B4A9AA"/>
<path d="M142.42 38.3265C142.42 39.6162 141.741 40.6617 140.903 40.6617C140.065 40.6617 139.386 39.6162 139.386 38.3265C139.386 37.0369 140.065 35.9913 140.903 35.9913C141.741 35.9913 142.42 37.0369 142.42 38.3265Z" fill="black"/>
<path d="M140.428 38.7376C140.35 39.0448 139.804 39.1703 139.21 39.0187C138.615 38.8665 138.197 38.4949 138.275 38.1885C138.353 37.882 138.899 37.7558 139.494 37.908C140.088 38.0596 140.507 38.4312 140.428 38.7376Z" fill="white"/>
<path d="M157.251 39.4234C157.251 40.7398 156.558 41.8073 155.703 41.8073C154.847 41.8073 154.155 40.7398 154.155 39.4234C154.155 38.107 154.847 37.0395 155.703 37.0395C156.558 37.0395 157.251 38.107 157.251 39.4234Z" fill="black"/>
<path d="M128.549 71.922C128.476 73.7876 129.785 75.2925 131.2 76.3477C132.869 77.5928 134.885 78.3956 136.915 78.818C140.953 79.6579 145.184 78.9572 148.714 76.8221C149.647 76.2586 150.526 75.601 151.331 74.8667C152.123 74.1455 152.995 73.3076 153.454 72.3258C153.588 72.0372 153.252 71.7478 153.002 71.9782C152.346 72.5836 151.805 73.3131 151.162 73.9364C150.509 74.5712 149.803 75.1485 149.049 75.6593C147.53 76.6878 145.844 77.455 144.064 77.9027C140.207 78.8721 136.038 78.264 132.562 76.3559C130.851 75.4166 129.19 73.9665 128.932 71.922C128.902 71.6841 128.56 71.669 128.549 71.922Z" fill="#8D4234"/>
<path d="M124.155 40.109C124.117 39.553 123.357 38.938 122.83 39.3857C122.572 39.6044 122.553 40.1913 122.535 40.5087C122.505 41.0572 122.605 41.5975 122.807 42.1076C122.842 42.1961 122.925 42.2907 123.034 42.2797C123.854 42.1961 124.569 41.566 124.627 40.7165C124.687 39.8588 124.015 39.0902 123.184 38.9524C123.047 38.9297 122.936 38.9873 122.888 39.1204C122.568 39.9863 122.842 40.9708 123.564 41.5461C123.658 41.6215 123.815 41.6558 123.905 41.5461C124.502 40.8248 124.283 39.6394 123.392 39.2595C123.292 39.217 123.182 39.215 123.1 39.2972C122.397 40.0021 122.399 41.1676 123.108 41.8676C123.201 41.9595 123.356 41.9602 123.449 41.8676C124.279 41.0456 123.931 39.5701 122.859 39.156C122.776 39.1238 122.685 39.1649 122.624 39.2177C121.601 40.0994 122.062 41.9664 123.362 42.2962C123.438 42.316 123.545 42.301 123.597 42.2345C124.33 41.2931 124.057 39.8252 122.969 39.2753C122.843 39.2122 122.712 39.2493 122.632 39.3637C121.848 40.493 122.67 41.8423 123.597 42.5759C124.168 43.0284 124.816 43.3808 125.349 43.882C125.834 44.3379 126.221 44.881 126.508 45.4809C127.799 48.1795 127.017 51.2764 125.938 53.8935C125.307 55.4265 124.564 56.9123 123.986 58.4679C123.416 60.0051 123.046 61.6047 122.846 63.231C122.441 66.535 122.764 69.8801 123.3 73.1499C123.853 76.5184 124.65 79.8402 125.262 83.197C125.887 86.6238 126.436 90.1609 125.198 93.517C124.615 95.0967 123.808 96.5845 123.289 98.1888C122.781 99.761 122.518 101.406 122.424 103.053C122.228 106.473 122.738 109.884 123.186 113.265C123.918 118.796 123.93 124.915 121.191 129.954C120.875 130.534 120.519 131.091 120.124 131.621C119.886 131.939 120.422 132.246 120.656 131.932C122.29 129.738 123.214 127.088 123.718 124.421C124.242 121.651 124.347 118.799 124.122 115.991C123.859 112.711 123.208 109.476 123.049 106.184C122.967 104.473 122.995 102.746 123.258 101.051C123.523 99.3428 124.06 97.737 124.755 96.1573C125.409 94.6668 126.099 93.1804 126.38 91.565C126.672 89.888 126.604 88.1794 126.399 86.4969C125.987 83.114 125.198 79.7874 124.528 76.4505C123.856 73.1026 123.263 69.7108 123.267 66.2847C123.269 64.6009 123.42 62.9156 123.781 61.2694C124.147 59.604 124.757 58.0298 125.444 56.4735C126.633 53.7803 127.948 51.0118 127.711 47.9896C127.613 46.7342 127.266 45.4685 126.544 44.4223C126.188 43.9074 125.756 43.4665 125.253 43.0942C124.641 42.6403 123.933 42.2872 123.411 41.723C122.89 41.1601 122.588 40.2928 123.057 39.6113C122.945 39.6407 122.832 39.6702 122.72 39.6997C123.501 40.0905 123.808 41.1841 123.256 41.8937C123.334 41.8731 123.412 41.8526 123.491 41.8313C122.524 41.5865 122.217 40.2029 122.965 39.5585C122.887 39.579 122.809 39.6003 122.73 39.6209C123.475 39.9081 123.661 40.9791 123.108 41.5269H123.449C122.925 41.0099 122.921 40.1598 123.441 39.638C123.344 39.651 123.246 39.6634 123.149 39.6757C123.725 39.9218 123.984 40.6973 123.564 41.2053H123.905C123.302 40.7254 123.087 39.9733 123.352 39.2486C123.254 39.3041 123.155 39.3603 123.056 39.4165C123.637 39.5112 124.14 39.9767 124.155 40.5917C124.171 41.2156 123.639 41.7477 123.034 41.8107C123.109 41.8683 123.184 41.9252 123.26 41.9828C123.071 41.5104 122.971 41.0188 123 40.5087C123.009 40.3366 123.004 39.9376 123.122 39.7957C123.331 39.5475 123.724 39.869 123.752 40.109C123.782 40.36 124.172 40.3716 124.155 40.109Z" fill="#FFEFE0"/>
<path d="M121.133 131.64C123.923 126.615 126.359 121.234 127.711 115.633C128.023 114.338 128.268 113.024 128.4 111.698C128.556 110.135 128.601 108.563 128.723 106.997C128.965 103.87 129.558 100.827 131.373 98.2052C132.973 95.896 135.16 94.0729 137.233 92.208C139.452 90.2122 141.436 88.0792 143.091 85.5883C144.859 82.9267 146.299 80.0656 147.77 77.2347C149.425 74.0534 151.079 70.8714 152.734 67.6894C155.749 61.8911 158.949 55.9653 160.193 49.4848C160.338 48.7327 160.445 47.9798 160.51 47.2167C160.532 46.9521 160.078 46.8863 160.041 47.153C159.58 50.4131 158.702 53.5485 157.484 56.6063C156.251 59.7033 154.748 62.6844 153.217 65.6435C151.615 68.7426 150.004 71.8375 148.397 74.9344C146.886 77.847 145.431 80.8006 143.748 83.6192C142.168 86.2637 140.327 88.6736 138.084 90.7915C136.058 92.7051 133.856 94.4541 132.055 96.5933C131.202 97.6053 130.444 98.7029 129.878 99.9014C129.22 101.295 128.831 102.791 128.597 104.309C128.137 107.297 128.273 110.343 127.781 113.326C127.306 116.199 126.424 119 125.393 121.719C124.35 124.468 123.127 127.152 121.783 129.767C121.488 130.344 121.184 130.918 120.874 131.488C120.782 131.658 121.039 131.809 121.133 131.64Z" fill="#FFEFE0"/>
<path d="M139.604 191.289C139.18 194.531 139.156 197.834 139.007 201.097C138.858 204.366 138.726 207.636 138.591 210.906C138.584 211.068 138.725 211.165 138.869 211.183C140.353 211.367 141.252 209.803 141.883 208.716C142.317 207.967 142.722 207.192 142.949 206.352C143.188 205.47 143.249 204.548 143.284 203.638C143.416 200.219 143.667 196.813 144.027 193.409C144.226 191.524 144.452 189.642 144.71 187.764C144.534 187.74 144.358 187.717 144.182 187.693C144.155 188.404 143.997 189.106 143.969 189.82C143.957 190.123 144.429 190.123 144.441 189.82C144.469 189.109 144.69 188.407 144.719 187.693C144.731 187.397 144.234 187.318 144.192 187.621C143.758 190.777 143.402 193.944 143.13 197.117C142.994 198.707 142.88 200.298 142.806 201.891C142.727 203.577 142.818 205.343 142.176 206.937C141.828 207.801 141.336 208.652 140.805 209.417C140.354 210.068 139.731 210.737 138.869 210.628C138.961 210.721 139.054 210.813 139.146 210.906C139.287 207.636 139.432 204.367 139.558 201.097C139.685 197.838 139.941 194.55 139.789 191.289C139.784 191.167 139.619 191.174 139.604 191.289Z" fill="#B4A9AA"/>
<path d="M109.597 359.746C107.611 359.147 105.71 358.268 103.948 357.172C103.067 356.623 102.221 356.017 101.423 355.353C100.678 354.733 99.9437 354.043 99.4891 353.174C99.0785 352.39 98.9576 351.458 99.3009 350.626C99.6635 349.747 100.541 349.267 101.48 349.433C103.4 349.773 104.807 351.762 105.857 353.237C107.217 355.146 108.291 357.245 109.051 359.46C109.152 359.753 109.564 359.634 109.512 359.333C109.187 357.47 109.293 355.548 109.807 353.727C110.062 352.83 110.412 351.961 110.858 351.141C111.203 350.509 111.907 348.971 112.834 349.481C113.441 349.815 113.863 350.627 114.128 351.243C114.396 351.866 114.554 352.54 114.605 353.215C114.705 354.54 114.431 355.893 113.831 357.078C113.147 358.424 112.038 359.54 110.617 360.091C110.324 360.204 110.454 360.683 110.748 360.566C113.631 359.423 115.303 356.242 115.074 353.215C114.968 351.817 114.42 350.045 113.229 349.178C112.485 348.635 111.734 348.997 111.229 349.662C110.594 350.499 110.113 351.474 109.735 352.449C108.872 354.676 108.645 357.11 109.051 359.46C109.205 359.418 109.358 359.376 109.512 359.333C108.756 357.125 107.702 355.025 106.361 353.113C105.229 351.499 103.778 349.457 101.732 348.986C99.7665 348.533 98.4028 350.27 98.6328 352.118C98.8883 354.171 100.856 355.611 102.42 356.719C104.574 358.246 106.966 359.36 109.502 360.093C109.724 360.157 109.818 359.813 109.597 359.746Z" fill="#BBA89C"/>
<path d="M167.483 354.124C167.301 352.031 167.219 349.93 167.24 347.83C167.251 346.793 167.283 345.757 167.341 344.722C167.392 343.83 167.395 342.893 167.646 342.029C167.868 341.266 168.442 340.488 169.343 340.695C170.146 340.88 170.714 341.729 170.968 342.458C171.585 344.226 171.205 346.217 170.512 347.901C169.697 349.88 168.425 351.646 167.138 353.341C167.261 353.392 167.383 353.444 167.506 353.496C167.97 352.135 168.75 350.9 169.78 349.895C170.834 348.869 172.282 347.886 173.788 347.768C174.571 347.706 175.341 347.921 175.891 348.5C176.413 349.051 176.575 349.812 176.21 350.494C175.854 351.16 175.179 351.618 174.568 352.031C173.938 352.457 173.281 352.845 172.6 353.183C170.989 353.982 169.26 354.52 167.489 354.831C167.167 354.887 167.304 355.377 167.625 355.321C169.439 355.01 171.189 354.409 172.823 353.565C173.651 353.137 174.454 352.656 175.208 352.108C175.797 351.679 176.397 351.181 176.683 350.491C177.254 349.115 176.136 347.701 174.785 347.413C173.15 347.064 171.472 347.972 170.23 348.955C168.787 350.097 167.708 351.649 167.118 353.389C167.038 353.623 167.359 353.711 167.485 353.544C168.767 351.855 170.02 350.107 170.847 348.145C171.601 346.358 172.017 344.236 171.364 342.349C170.908 341.028 169.291 339.43 167.925 340.707C167.382 341.215 167.183 341.999 167.084 342.709C166.934 343.787 166.906 344.895 166.865 345.981C166.763 348.697 166.848 351.418 167.097 354.124C167.119 354.369 167.504 354.373 167.483 354.124Z" fill="#BBA89C"/>
<path d="M130.815 78.9839C131.351 79.4392 131.899 79.8526 132.54 80.1488C133.181 80.445 133.849 80.6829 134.534 80.8536C135.199 81.0189 135.883 81.1279 136.567 81.1594C137.229 81.1896 138.024 81.2081 138.644 80.9469C138.823 80.8708 138.778 80.5526 138.588 80.5218C137.955 80.4176 137.274 80.5046 136.63 80.458C135.988 80.4121 135.35 80.3181 134.724 80.1646C133.457 79.8533 132.204 79.2986 131.078 78.6439C130.871 78.5239 130.623 78.8201 130.815 78.9839Z" fill="#8D4234"/>
<path d="M160.204 162.493C157.855 167.347 153.175 170.961 147.963 172.258C146.475 172.628 144.953 172.802 143.426 172.922C143.235 172.937 143.156 173.253 143.378 173.284C146.137 173.68 148.975 172.988 151.49 171.862C154.053 170.715 156.375 168.959 158.155 166.788C159.164 165.557 159.982 164.192 160.617 162.734C160.738 162.458 160.34 162.212 160.204 162.493Z" fill="#8D4234"/>
<path d="M119.142 329.51C120.366 328.886 121.383 327.925 122.168 326.804C122.557 326.248 122.876 325.653 123.12 325.02C123.342 324.445 123.626 323.693 123.448 323.073C123.408 322.933 123.234 322.926 123.157 323.035C122.992 323.269 122.901 323.571 122.802 323.838C122.688 324.141 122.601 324.45 122.473 324.747C122.224 325.323 121.919 325.881 121.563 326.398C120.846 327.437 119.883 328.284 118.807 328.939C118.44 329.161 118.763 329.704 119.142 329.51Z" fill="#8D4234"/>
<path d="M148.668 342.743C148.676 342.987 148.698 343.249 148.788 343.477C148.88 343.709 148.996 343.927 149.147 344.128C149.439 344.519 149.813 344.845 150.245 345.075C150.675 345.303 151.159 345.455 151.649 345.461C151.9 345.464 152.141 345.426 152.383 345.359C152.495 345.327 152.617 345.291 152.719 345.234C152.794 345.192 152.828 345.141 152.886 345.083C152.82 345.149 152.963 345.032 152.978 345.021C153.141 344.897 153.058 344.585 152.825 344.66C152.807 344.666 152.659 344.704 152.71 344.7C152.764 344.696 152.558 344.695 152.542 344.697C152.449 344.71 152.359 344.742 152.266 344.758C152.082 344.791 151.882 344.786 151.696 344.773C151.317 344.749 150.937 344.645 150.6 344.468C149.904 344.101 149.391 343.444 149.257 342.664C149.2 342.329 148.658 342.41 148.668 342.743Z" fill="#8D4234"/>
<path d="M93.1108 114.705C93.0483 115.113 93.0009 115.553 93.187 115.922C93.3388 116.223 93.623 116.431 93.897 116.627L97.618 119.296C99.0359 120.312 100.463 121.335 102.032 122.098C103.547 122.836 105.171 123.32 106.786 123.802C109.632 124.65 112.49 125.758 115.335 126.605C115.476 124.404 116.072 121.152 116.544 118.997C115.119 118.911 113.911 118.024 112.734 117.218C111.018 116.043 108.85 115.864 106.974 114.968C103.79 113.448 100.614 111.912 97.423 110.408C96.1582 109.811 94.4621 109.037 94.4621 109.037C94.4621 109.037 93.2866 113.551 93.1108 114.705Z" fill="#8D4234"/>
<path d="M96.9149 146.861C95.4489 147.382 94.1236 148.368 92.9824 149.41C91.7979 150.492 90.7652 151.737 89.8821 153.073C88.0913 155.784 86.9268 158.906 86.3287 162.09C85.561 166.176 85.629 170.361 86.0025 174.485C86.3884 178.747 87.0325 182.987 87.5969 187.229L88.0707 190.789C88.1854 191.65 88.2911 192.513 88.528 193.351C88.9277 194.769 89.716 196.286 91.3282 196.475C91.6056 196.508 91.6194 196.102 91.3907 196.018C90.0627 195.533 89.4385 194.235 89.1117 192.95C88.6674 191.203 88.5521 189.351 88.3172 187.568C87.7878 183.544 87.1952 179.523 86.7908 175.485C86.0767 168.355 86.2078 160.925 89.8114 154.524C90.6567 153.024 91.675 151.619 92.8821 150.387C94.1332 149.11 95.5704 148.16 97.0474 147.175C97.2005 147.073 97.1092 146.791 96.9149 146.861Z" fill="#B58258"/>
<path d="M124.635 157.419C124.58 158.092 124.711 158.753 124.795 159.42C124.879 160.088 124.959 160.755 125.035 161.424C125.18 162.705 125.308 163.989 125.42 165.274C125.649 167.899 125.82 170.53 125.919 173.164C126.114 178.375 126.044 183.597 125.705 188.801C125.513 191.767 125.232 194.727 124.867 197.677C124.818 198.075 125.443 198.071 125.492 197.677C126.791 187.218 127.027 176.615 126.135 166.111C126.011 164.659 125.865 163.207 125.699 161.758C125.616 161.034 125.527 160.31 125.434 159.587C125.338 158.843 125.291 158.072 125.024 157.367C124.944 157.157 124.654 157.192 124.635 157.419Z" fill="#B58258"/>
<path d="M91.9366 196.5C92.0718 197.027 92.5532 197.235 93.0545 197.314C93.8242 197.435 94.629 197.4 95.4056 197.421C97.1744 197.47 98.9425 197.506 100.711 197.542C104.248 197.613 107.786 197.682 111.322 197.764C113.319 197.811 115.316 197.856 117.313 197.896C117.765 197.905 117.765 197.204 117.313 197.195C110.638 197.063 103.963 196.934 97.2884 196.823C96.3758 196.808 95.4626 196.801 94.55 196.79C93.9121 196.782 92.7029 197.002 92.2978 196.347C92.181 196.157 91.8803 196.28 91.9366 196.5Z" fill="#B58258"/>
<path d="M149.492 277.746C148.69 278.728 149.368 279.904 150.446 280.274C151.058 280.484 151.746 280.487 152.387 280.505C152.956 280.521 153.526 280.512 154.094 280.466C155.206 280.377 156.319 280.167 157.321 279.66C158.233 279.199 159.121 278.431 159.222 277.36C159.244 277.13 158.948 277.059 158.802 277.186C158.196 277.717 157.678 278.302 156.951 278.682C156.211 279.068 155.36 279.271 154.536 279.376C153.682 279.485 152.814 279.493 151.955 279.454C151.454 279.433 150.873 279.436 150.425 279.182C150.072 278.981 149.722 278.504 149.978 278.12C150.171 277.832 149.716 277.472 149.492 277.746Z" fill="#CD4A57"/>
<path d="M115.915 279.323C116.751 280.645 118.35 281.324 119.899 281.126C121.257 280.952 122.925 279.969 123.065 278.477C123.083 278.296 122.843 278.231 122.728 278.337C122.298 278.733 121.919 279.191 121.436 279.527C120.942 279.871 120.373 280.115 119.772 280.191C118.545 280.344 117.332 279.751 116.507 278.867C116.216 278.556 115.685 278.96 115.915 279.323Z" fill="#CD4A57"/>
<path d="M172.358 31.2645C174.099 30.4931 175.841 29.7225 177.583 28.9512" stroke="#FBF7EB" stroke-width="1.3333" stroke-miterlimit="10"/>
<path d="M173.594 35.1725C174.856 34.7475 176.207 34.5889 177.533 34.7111" stroke="#FBF7EB" stroke-width="1.3333" stroke-miterlimit="10"/>
<path d="M209.987 104.9C210.957 104.968 211.731 105.813 212.025 106.738C212.32 107.663 212.236 108.661 212.15 109.628" stroke="#FBF7EB" stroke-width="1.3333" stroke-miterlimit="10"/>
<path d="M213.077 104.557C214.615 105.881 215.102 108.277 214.202 110.094" stroke="#FBF7EB" stroke-width="1.3333" stroke-miterlimit="10"/>
<path d="M157.801 38.6007C157.858 38.8276 157.492 39.1156 156.982 39.2438C156.473 39.3727 156.014 39.2925 155.956 39.0655C155.899 38.8386 156.265 38.5506 156.775 38.4224C157.284 38.2935 157.743 38.3738 157.801 38.6007Z" fill="white"/>
<path d="M147.844 53.89H145.796C143.507 53.89 141.482 52.8068 140.216 51.1407C140.625 54.4207 143.04 56.9411 145.963 56.9411H147.677C150.599 56.9411 153.014 54.4207 153.423 51.1407C152.157 52.8068 150.133 53.89 147.844 53.89Z" fill="white"/>
</svg>
